<svg xmlns="http://www.w3.org/2000/svg" width="12.729" height="12.729" viewBox="0 0 12.729 12.729">
  <g id="Icon_ion-ios-close-circle-outline" data-name="Icon ion-ios-close-circle-outline" transform="translate(-3.375 -3.375)">
    <path id="Path_584" data-name="Path 584" d="M17.118,16.424l-1.612-1.612L17.118,13.2a.489.489,0,0,0-.692-.692L14.814,14.12,13.2,12.507a.489.489,0,0,0-.692.692l1.612,1.612L12.51,16.424a.473.473,0,0,0,0,.692.486.486,0,0,0,.692,0L14.814,15.5l1.612,1.612a.491.491,0,0,0,.692,0A.486.486,0,0,0,17.118,16.424Z" transform="translate(-5.075 -5.072)" fill="red"/>
    <path id="Path_585" data-name="Path 585" d="M9.739,4.232a5.505,5.505,0,1,1-3.9,1.612,5.471,5.471,0,0,1,3.9-1.612m0-.857A6.364,6.364,0,1,0,16.1,9.739,6.363,6.363,0,0,0,9.739,3.375Z" fill="red"/>
  </g>
</svg>
