<svg id="Component_12_1" data-name="Component 12 – 1" xmlns="http://www.w3.org/2000/svg" width="78" height="62" viewBox="0 0 78 62">
  <rect id="Rectangle_1052" data-name="Rectangle 1052" width="78" height="62" rx="8" fill="#c6c8eb"/>
  <g id="页面-1" transform="translate(15.167 7.167)">
    <g id="System">
      <g id="safe_shield_2_fill">
        <path id="MingCute" d="M47.666,0V47.666H0V0ZM25.012,46.192l-.023,0-.141.071-.038.007h0l-.03-.007-.141-.071a.042.042,0,0,0-.047.011l-.008.022-.034.849.01.04.022.024.206.147.03.008h0l.023-.008.206-.147.025-.032h0l.007-.033-.034-.849a.042.042,0,0,0-.032-.036Zm.526-.224-.027,0-.367.183-.02.02h0l-.005.022.036.853.01.025h0l.017.014.4.184a.05.05,0,0,0,.057-.016l.008-.028-.068-1.221a.05.05,0,0,0-.038-.042Zm-1.421,0a.045.045,0,0,0-.054.011l-.011.028-.068,1.221a.045.045,0,0,0,.034.046l.031,0,.4-.184.019-.016h0l.008-.023.036-.853-.006-.025h0l-.019-.018Z" fill="none"/>
        <path id="形状" d="M19.48,2.321a3.972,3.972,0,0,1,2.789,0l13.9,5.213a3.972,3.972,0,0,1,2.578,3.719V21.9a17.875,17.875,0,0,1-9.881,15.988l-6.662,3.331a2.978,2.978,0,0,1-2.665,0l-6.662-3.331A17.875,17.875,0,0,1,3,21.9V11.254A3.972,3.972,0,0,1,5.577,7.535ZM20.875,6.04l-13.9,5.213V21.9a13.9,13.9,0,0,0,7.685,12.435l6.217,3.109Z" transform="translate(2.958 2.039)" fill="#787ee5" fill-rule="evenodd"/>
      </g>
    </g>
  </g>
</svg>
