<svg id="Component_9_1" data-name="Component 9 – 1" xmlns="http://www.w3.org/2000/svg" width="78" height="62" viewBox="0 0 78 62">
  <rect id="Rectangle_1049" data-name="Rectangle 1049" width="78" height="62" rx="8" fill="#c6c8eb"/>
  <g id="holiday-island-tourism-svgrepo-com" transform="translate(-7.943 -36.467)">
    <path id="Path_1494" data-name="Path 1494" d="M71.391,325.65c-.3-.028-.592-.046-.9-.046a9.216,9.216,0,0,0-3.913.87,13.488,13.488,0,0,0-5.624-3.95,11.818,11.818,0,0,0-1.147-.361,13.412,13.412,0,0,0-7.964.305A13.434,13.434,0,0,0,42.9,334.845H79.725A9.234,9.234,0,0,0,71.391,325.65Zm-18.232.546a9.516,9.516,0,0,0-5.689,5.559.646.646,0,0,1-.6.416.517.517,0,0,1-.231-.046.642.642,0,0,1-.37-.833,10.778,10.778,0,0,1,6.466-6.318.647.647,0,1,1,.426,1.221Z" transform="translate(-15.675 -248.158)" fill="#787ee5"/>
    <path id="Path_1495" data-name="Path 1495" d="M249.937,181.541a6.124,6.124,0,0,1,3,.814c.361-1.915.814-3.682,1.23-5.143l-2.812-1.138-.018-.074a29.422,29.422,0,0,0-8.834,13.071.07.07,0,0,1,.037.019,14.74,14.74,0,0,1,5.522,3.617,10.305,10.305,0,0,1,3.561-.62c.231,0,.472.009.7.028a25.365,25.365,0,0,1-.139-2.923.691.691,0,0,1-.185.028.74.74,0,0,1-.305-.074,9.58,9.58,0,0,0-3.839-1.045.648.648,0,0,1,0-1.3,10.743,10.743,0,0,1,4.366,1.156,40.163,40.163,0,0,1,.463-4.283.752.752,0,0,1-.268-.111,4.715,4.715,0,0,0-2.5-.731.644.644,0,0,1-.648-.648A.678.678,0,0,1,249.937,181.541Z" transform="translate(-196.812 -115.935)" fill="#787ee5"/>
    <path id="Path_1496" data-name="Path 1496" d="M262.665,52.609s-2.109-5.291-8.769-4.218c0,0,2.821,1.619,2.535,3.931,0,0-4.486-2.47-9.13,2.794,0,0,8.538-.453,9.528,4.079l2.063.833s5.707.722,5.9,5.439a7.135,7.135,0,0,0,1.462-6.429,2.99,2.99,0,0,1,2.969,1.85C269.232,60.9,271.212,52.322,262.665,52.609Z" transform="translate(-201.168 0)" fill="#787ee5"/>
    <path id="Path_1497" data-name="Path 1497" d="M127.251,213.817a19.7,19.7,0,0,0-2.091-2.017l-.019.065-2.442.99a40.507,40.507,0,0,1,1.517,8.519,14.777,14.777,0,0,1,7.446-.407c-.185-.463-.4-.925-.62-1.4a.672.672,0,0,1-.333.065,25.828,25.828,0,0,0-3.617-.009c-.028,0-.056.009-.093.009a.646.646,0,0,1-.083-1.286,23.153,23.153,0,0,1,3.478-.028,23.6,23.6,0,0,0-2.276-3.45.572.572,0,0,1-.259.13,7.243,7.243,0,0,0-1.674.564.661.661,0,0,1-.453.185.616.616,0,0,1-.453-.194.653.653,0,0,1,0-.916A5.453,5.453,0,0,1,127.251,213.817Z" transform="translate(-88.094 -148.424)" fill="#787ee5"/>
    <path id="Path_1498" data-name="Path 1498" d="M28.214,114.179a5.854,5.854,0,0,0,1.2,5.273c.157-3.876,4.838-4.459,4.838-4.459l1.693-.685c.8-3.719,7.807-3.349,7.807-3.349-3.811-4.311-7.483-2.294-7.483-2.294-.241-1.887,2.081-3.219,2.081-3.219-5.458-.879-7.187,3.46-7.187,3.46-7-.241-5.374,6.79-5.374,6.79A2.436,2.436,0,0,1,28.214,114.179Z" transform="translate(0 -51.802)" fill="#787ee5"/>
  </g>
</svg>
