<svg id="Component_13_1" data-name="Component 13 – 1" xmlns="http://www.w3.org/2000/svg" width="78" height="62" viewBox="0 0 78 62">
  <rect id="Rectangle_1053" data-name="Rectangle 1053" width="78" height="62" rx="8" fill="#dfcdef"/>
  <g id="bank-svgrepo-com" transform="translate(20.729 12.731)">
    <g id="Group_2026" data-name="Group 2026" transform="translate(0.001 29.39)">
      <g id="Group_2025" data-name="Group 2025" transform="translate(0)">
        <path id="Path_1501" data-name="Path 1501" d="M32.966,411.826H3.576A3.579,3.579,0,0,0,0,415.4v2.383a1.192,1.192,0,0,0,1.192,1.192H35.349a1.192,1.192,0,0,0,1.192-1.192V415.4A3.579,3.579,0,0,0,32.966,411.826Z" transform="translate(-0.001 -411.826)" fill="#a57dc9"/>
      </g>
    </g>
    <g id="Group_2028" data-name="Group 2028" transform="translate(0.001 -0.001)">
      <g id="Group_2027" data-name="Group 2027" transform="translate(0 0)">
        <path id="Path_1502" data-name="Path 1502" d="M35.809,7.241,18.731.092a1.189,1.189,0,0,0-.92,0L.733,7.241A1.192,1.192,0,0,0,0,8.34v4.766A1.192,1.192,0,0,0,1.193,14.3H35.349a1.192,1.192,0,0,0,1.192-1.192V8.34A1.192,1.192,0,0,0,35.809,7.241ZM18.271,9.134a1.192,1.192,0,1,1,1.192-1.191A1.192,1.192,0,0,1,18.271,9.134Z" transform="translate(-0.001 0.001)" fill="#a57dc9"/>
      </g>
    </g>
    <g id="Group_2030" data-name="Group 2030" transform="translate(26.611 16.68)">
      <g id="Group_2029" data-name="Group 2029">
        <rect id="Rectangle_1058" data-name="Rectangle 1058" width="7.149" height="10.326" fill="#a57dc9"/>
      </g>
    </g>
    <g id="Group_2032" data-name="Group 2032" transform="translate(14.696 16.68)">
      <g id="Group_2031" data-name="Group 2031">
        <rect id="Rectangle_1059" data-name="Rectangle 1059" width="7.149" height="10.326" fill="#a57dc9"/>
      </g>
    </g>
    <g id="Group_2034" data-name="Group 2034" transform="translate(2.781 16.68)">
      <g id="Group_2033" data-name="Group 2033">
        <rect id="Rectangle_1060" data-name="Rectangle 1060" width="7.149" height="10.326" fill="#a57dc9"/>
      </g>
    </g>
  </g>
</svg>
