<svg id="Component_10_1" data-name="Component 10 – 1" xmlns="http://www.w3.org/2000/svg" width="78" height="62" viewBox="0 0 78 62">
  <rect id="Rectangle_1050" data-name="Rectangle 1050" width="78" height="62" rx="8" fill="#dfcdef"/>
  <g id="verified-ui-shield-svgrepo-com_2_" data-name="verified-ui-shield-svgrepo-com (2)" transform="translate(18.5 11.78)">
    <path id="Path_1499" data-name="Path 1499" d="M204.029,217.986a1.464,1.464,0,0,0-2.07,0l-3.8,3.8-1.035-1.035a1.464,1.464,0,0,0-2.07,0h0a1.464,1.464,0,0,0,0,2.07l2.07,2.07a1.464,1.464,0,0,0,2.07,0l4.831-4.831a1.464,1.464,0,0,0,0-2.07Z" transform="translate(-179.043 -200.135)" fill="#a57dc9"/>
    <path id="Path_1500" data-name="Path 1500" d="M20.5,0A20.5,20.5,0,1,0,41,20.5,20.5,20.5,0,0,0,20.5,0ZM31.235,24a5.856,5.856,0,0,1-2.382,4.714l-5.711,4.208a4.455,4.455,0,0,1-5.285,0l-5.711-4.208A5.856,5.856,0,0,1,9.764,24V13.882a2.928,2.928,0,0,1,2.046-2.792L17.64,9.25a9.5,9.5,0,0,1,5.72,0l5.829,1.841a2.928,2.928,0,0,1,2.046,2.792V24Z" fill="#a57dc9"/>
  </g>
</svg>
