<svg xmlns="http://www.w3.org/2000/svg" width="62.121" height="56" viewBox="0 0 62.121 56">
  <g id="image-frame-svgrepo-com" transform="translate(-2 -3)">
    <rect id="primary" width="62" height="56" rx="2" transform="translate(2 3)" fill="#e3e3e3"/>
    <path id="secondary" d="M2.9,40.166,17.53,25.537a3.106,3.106,0,0,1,4.411,0l6.492,6.523L41.074,19.387a3.106,3.106,0,0,1,4.411,0L63.22,37.06a3.106,3.106,0,0,1,.9,2.205v7.113a6.212,6.212,0,0,1-6.212,6.212H8.212A6.212,6.212,0,0,1,2,46.379V42.372A3.106,3.106,0,0,1,2.9,40.166ZM19.083,10.659A4.659,4.659,0,1,0,23.742,6a4.659,4.659,0,0,0-4.659,4.659Z" transform="translate(0 6.318)" fill="#612178"/>
  </g>
</svg>
