<svg xmlns="http://www.w3.org/2000/svg" width="47.37" height="47.385" viewBox="0 0 47.37 47.385">
  <path id="verify-svgrepo-com" d="M48.325,22.7,45.1,18.962a5.25,5.25,0,0,1-1.113-2.984V11.95a4.59,4.59,0,0,0-4.571-4.571H35.392a5.313,5.313,0,0,1-2.984-1.113L28.665,3.044a4.773,4.773,0,0,0-5.969,0L18.977,6.289a5.464,5.464,0,0,1-2.984,1.09h-4.1A4.59,4.59,0,0,0,7.323,11.95V16a5.39,5.39,0,0,1-1.09,2.961l-3.2,3.766a4.769,4.769,0,0,0,0,5.922l3.2,3.766a5.39,5.39,0,0,1,1.09,2.961v4.05A4.59,4.59,0,0,0,11.895,44h4.1a5.313,5.313,0,0,1,2.984,1.113l3.743,3.221a4.773,4.773,0,0,0,5.969,0l3.742-3.221A5.25,5.25,0,0,1,35.416,44h4.027a4.59,4.59,0,0,0,4.571-4.571V35.4a5.313,5.313,0,0,1,1.113-2.984l3.221-3.742A4.805,4.805,0,0,0,48.325,22.7ZM35.534,21.212,24.094,32.652a1.773,1.773,0,0,1-2.511,0L15.851,26.92a1.775,1.775,0,0,1,2.511-2.511l4.477,4.477L33.023,18.7a1.775,1.775,0,0,1,2.511,2.511Z" transform="translate(-2.006 -1.996)" fill="#292d32"/>
</svg>
